<svg width="18" height="13" viewBox="0 0 18 13" fill="none" xmlns="http://www.w3.org/2000/svg">
<path d="M16.2868 2.71776C16.1985 2.38555 16.0246 2.08235 15.7823 1.83852C15.54 1.59469 15.238 1.41881 14.9063 1.32847C13.6888 1 8.80654 1 8.80654 1C8.80654 1 3.9243 1 2.70676 1.32847C2.37512 1.41881 2.07303 1.59469 1.83076 1.83852C1.58849 2.08235 1.41454 2.38555 1.32632 2.71776C1 3.94308 1 6.5 1 6.5C1 6.5 1 9.05692 1.32632 10.2825C1.41454 10.6147 1.58849 10.9179 1.83076 11.1617C2.07303 11.4056 2.37512 11.5815 2.70676 11.6718C3.9243 12 8.80654 12 8.80654 12C8.80654 12 13.6888 12 14.9063 11.6718C15.238 11.5815 15.54 11.4056 15.7823 11.1617C16.0246 10.9179 16.1985 10.6147 16.2868 10.2825C16.6131 9.05692 16.6131 6.5 16.6131 6.5C16.6131 6.5 16.6131 3.94308 16.2868 2.71776Z" fill="#EA5A47"/>
<path d="M7.20984 8.82131L11.2905 6.50001L7.20984 4.17871V8.82131Z" fill="white"/>
<path d="M16.2868 2.71776C16.1985 2.38555 16.0246 2.08235 15.7823 1.83852C15.54 1.59469 15.238 1.41881 14.9063 1.32847C13.6888 1 8.80654 1 8.80654 1C8.80654 1 3.9243 1 2.70676 1.32847C2.37512 1.41881 2.07303 1.59469 1.83076 1.83852C1.58849 2.08235 1.41454 2.38555 1.32632 2.71776C1 3.94308 1 6.5 1 6.5C1 6.5 1 9.05692 1.32632 10.2825C1.41454 10.6147 1.58849 10.9179 1.83076 11.1617C2.07303 11.4056 2.37512 11.5815 2.70676 11.6718C3.9243 12 8.80654 12 8.80654 12C8.80654 12 13.6888 12 14.9063 11.6718C15.238 11.5815 15.54 11.4056 15.7823 11.1617C16.0246 10.9179 16.1985 10.6147 16.2868 10.2825C16.6131 9.05692 16.6131 6.5 16.6131 6.5C16.6131 6.5 16.6131 3.94308 16.2868 2.71776Z" stroke="black" stroke-width="0.8" stroke-miterlimit="10"/>
<path d="M7.20984 8.82131L11.2905 6.50001L7.20984 4.17871V8.82131Z" stroke="black" stroke-width="0.8" stroke-miterlimit="10" stroke-linecap="round" stroke-linejoin="round"/>
</svg>
